<svg width="32" height="32" viewBox="0 0 26 26"><path fill="currentColor" d="M18.813 2.031a.95.95 0 0 0-.75.969v19a.95.95 0 1 0 1.875 0V3a.95.95 0 0 0-1.032-.969a.95.95 0 0 0-.093 0zm-12 1a.95.95 0 0 0-.75.969v17a.95.95 0 1 0 1.875 0V4a.95.95 0 0 0-1.032-.969a.95.95 0 0 0-.093 0zm9 3a.95.95 0 0 0-.75.969v11a.95.95 0 1 0 1.874 0V7a.95.95 0 0 0-1.03-.969a.95.95 0 0 0-.095 0zm-12 1a.95.95 0 0 0-.75.969v9a.95.95 0 1 0 1.874 0V8a.95.95 0 0 0-1.03-.969a.95.95 0 0 0-.095 0zm6 1a.95.95 0 0 0-.75.969v7a.95.95 0 1 0 1.874 0V9a.95.95 0 0 0-1.03-.969a.95.95 0 0 0-.095 0zm12 0a.95.95 0 0 0-.75.969v7a.95.95 0 1 0 1.875 0V9a.95.95 0 0 0-1.032-.969a.95.95 0 0 0-.093 0zm-21 2a.95.95 0 0 0-.75.969v3a.95.95 0 1 0 1.875 0v-3a.95.95 0 0 0-1.032-.969a.95.95 0 0 0-.094 0zm12 0a.95.95 0 0 0-.75.969v3a.95.95 0 1 0 1.874 0v-3a.95.95 0 0 0-1.03-.969a.95.95 0 0 0-.095 0zm12 0a.95.95 0 0 0-.75.969v3a.95.95 0 1 0 1.875 0v-3a.95.95 0 0 0-1.032-.969a.95.95 0 0 0-.093 0z"/></svg>